<svg width="56" height="56" viewBox="0 0 56 56" fill="none" xmlns="http://www.w3.org/2000/svg">
<g id="ph:microphone-fill" opacity="0.8">
<path id="Vector" d="M17.5 28V14C17.5 11.2152 18.6062 8.54451 20.5754 6.57538C22.5445 4.60625 25.2152 3.5 28 3.5C30.7848 3.5 33.4555 4.60625 35.4246 6.57538C37.3938 8.54451 38.5 11.2152 38.5 14V28C38.5 30.7848 37.3938 33.4555 35.4246 35.4246C33.4555 37.3938 30.7848 38.5 28 38.5C25.2152 38.5 22.5445 37.3938 20.5754 35.4246C18.6062 33.4555 17.5 30.7848 17.5 28ZM45.5 28C45.5 27.5359 45.3156 27.0908 44.9874 26.7626C44.6592 26.4344 44.2141 26.25 43.75 26.25C43.2859 26.25 42.8408 26.4344 42.5126 26.7626C42.1844 27.0908 42 27.5359 42 28C42 31.713 40.525 35.274 37.8995 37.8995C35.274 40.525 31.713 42 28 42C24.287 42 20.726 40.525 18.1005 37.8995C15.475 35.274 14 31.713 14 28C14 27.5359 13.8156 27.0908 13.4874 26.7626C13.1592 26.4344 12.7141 26.25 12.25 26.25C11.7859 26.25 11.3408 26.4344 11.0126 26.7626C10.6844 27.0908 10.5 27.5359 10.5 28C10.5053 32.3368 12.1186 36.5176 15.0278 39.7339C17.937 42.9502 21.9355 44.9735 26.25 45.4125V50.75C26.25 51.2141 26.4344 51.6592 26.7626 51.9874C27.0908 52.3156 27.5359 52.5 28 52.5C28.4641 52.5 28.9093 52.3156 29.2374 51.9874C29.5656 51.6592 29.75 51.2141 29.75 50.75V45.4125C34.0645 44.9735 38.063 42.9502 40.9722 39.7339C43.8814 36.5176 45.4947 32.3368 45.5 28Z" fill="url(#paint0_linear_94_278)"/>
</g>
<defs>
<linearGradient id="paint0_linear_94_278" x1="16.5" y1="8" x2="40.5" y2="52" gradientUnits="userSpaceOnUse">
<stop stop-color="#CAA278"/>
<stop offset="1" stop-color="#A27649"/>
</linearGradient>
</defs>
</svg>
